<?xml version="1.0" encoding="UTF-8"?>
<svg width="230px" height="58px" id="Layer_1" xmlns="http://www.w3.org/2000/svg" xmlns:xlink="http://www.w3.org/1999/xlink" version="1.1" viewBox="0 0 230 58">
  <!-- Generator: Adobe Illustrator 29.2.1, SVG Export Plug-In . SVG Version: 2.1.0 Build 116)  -->
  <defs>
    <style>
      .st0 {
        fill: url(#linear-gradient);
      }

      .st1 {
        fill: #d1ea32;
      }

      .st2 {
        fill: #006772;
      }

      .st3 {
        fill: red;
      }
    </style>
    <linearGradient id="linear-gradient" x1="45.5" y1="-588.6" x2="52.9" y2="-591.2" gradientTransform="translate(0 -539.9) scale(1 -1)" gradientUnits="userSpaceOnUse">
      <stop offset="0" stop-color="red"/>
      <stop offset=".8" stop-color="red" stop-opacity=".1"/>
      <stop offset=".9" stop-color="red" stop-opacity="0"/>
    </linearGradient>
  </defs>
  <g id="wij_zijn_transdev">
    <g>
      <g>
        <g>
          <path class="st2" d="M164.4,26.9c.8.9,7.2,8.4,8.4,9.5,1.2,1.1,2.8,1.7,4.6,1.7,3.2,0,6.7-2,8.1-4.6.6-1.2,1.1-3-.3-5-.5-.6-1.5-1.9-2.5-3.2-1.7-2.1-3.4-4.2-3.8-4.9-.7-1.5-.2-2.1.6-3.1,0-.1.2-.3.3-.4.3-.4.8-1,1.4-1.8,1.5-2,3.7-4.8,4.3-5.6,1.1-1.4,1.3-3,.5-4.5-1.2-2.4-4.3-4.1-7.5-4.1s-3.7.6-5.2,1.8c-1,.8-7.7,7.5-9.7,9.7.1.2.3.3.4.5,1.2,1.4,2.5,2.8,4.2,2.8h0c1.8,0,5.3-3.7,8.1-6.6.5-.6,1.1-1.1,1.5-1.6.8-.8,1.6-1,2.1-1,1.1,0,2,.6,2.4,1.5.4,1,.2,2.1-.7,3.1-1.7,1.9-1.9,2.3-3.1,3.7l-.7.9c0,.1-.3.3-.4.5-.7.8-1.9,2.2-2,3,0,.5.2,1.6,1.7,3.2,0,0,0,0,0,0,.6.8,2.6,3.3,3.6,4.5.3.4.5.7.6.7.8,1,1,2,.5,3-.4.8-1.2,1.4-2.1,1.4s-1.4-.3-2-.9c-.6-.6-1.4-1.5-2.1-2.5-1.9-2.4-4.3-5.3-5.8-5.3h0c-2.2.1-4.9,3.2-5.4,3.8h0Z"/>
          <path class="st1" d="M154.5,9.2c-3.2,0-6.7,2-8.1,4.6-.6,1.2-1.1,3,.3,5,.5.6,1.5,1.9,2.5,3.2,1.7,2.1,3.4,4.2,3.8,4.9.7,1.5.2,2.1-.6,3.1,0,.1-.2.3-.3.4-.3.4-.7,1-1.3,1.7-1.5,1.9-3.7,4.8-4.4,5.7-1.1,1.4-1.3,3-.5,4.5,1.2,2.4,4.3,4.1,7.5,4.1h0c1.9,0,3.7-.6,5.2-1.8,1-.8,7.7-7.5,9.7-9.7-.1-.2-.3-.3-.4-.5-1.2-1.4-2.5-2.8-4.2-2.8h0c-1.8,0-5.3,3.7-8.1,6.6-.5.6-1.1,1.1-1.5,1.6-.8.8-1.6,1-2.1,1-1.1,0-2-.6-2.4-1.5-.4-1-.2-2.1.7-3.1,1.6-1.9,1.9-2.2,3.1-3.7l.7-.9c0,0,.3-.3.4-.5.7-.8,1.9-2.2,2-3,0-.5-.2-1.6-1.7-3.2,0,0,0,0,0,0-.6-.8-2.5-3.2-3.6-4.5-.3-.4-.6-.7-.6-.8-.8-1-1-2-.5-3,.4-.8,1.2-1.4,2.1-1.4s1.4.3,2,.9c.6.6,1.4,1.5,2.1,2.5,1.9,2.4,4.3,5.3,5.8,5.3h0c2.2,0,4.9-3.2,5.4-3.7-.8-.9-7.2-8.4-8.4-9.5-1.2-1.1-2.8-1.7-4.6-1.7h0Z"/>
        </g>
        <g>
          <path class="st2" d="M8.8,23.1c1.1,0,1.9.2,2.7.7.3.2.6.3.9.3.8,0,1.5-.7,1.5-1.4,0-1.8-3.4-2.4-5-2.4-4.6,0-7.3,2.7-7.3,7.3s2.7,7.4,7.3,7.4,5-.7,5-2.4-.6-1.4-1.4-1.4-.7,0-1,.3c-.8.5-1.6.7-2.7.7-3,0-4.4-1.4-4.4-4.6s1.4-4.5,4.4-4.5Z"/>
          <path class="st2" d="M22.8,20.3c-4.2,0-7,2.9-7,7.3s3,7.4,7,7.4,7.2-3.2,7.2-7.4-2.9-7.3-7.2-7.3ZM22.8,32.1c-2.5,0-4.1-1.8-4.1-4.6s1.7-4.5,4.1-4.5,4.2,1.9,4.2,4.5-1.8,4.6-4.2,4.6Z"/>
          <path class="st2" d="M38.5,20.6h-5.9v12.9c0,1,.5,1.4,1.5,1.4s1.4-.5,1.4-1.4v-10.1h3.2c1.7,0,2.5.7,2.5,2.3v7.8c0,.9.5,1.4,1.4,1.4s1.5-.5,1.5-1.4v-7.8c0-3.1-2.2-5.1-5.6-5.1h0Z"/>
          <path class="st2" d="M52.9,20.6h-5.9v12.9c0,1,.5,1.4,1.5,1.4s1.4-.5,1.4-1.4v-10.1h3.2c1.7,0,2.5.7,2.5,2.3v7.8c0,.9.5,1.4,1.4,1.4s1.5-.5,1.5-1.4v-7.8c0-3.1-2.3-5.1-5.6-5.1h0Z"/>
          <path class="st2" d="M67.9,20.3c-4.4,0-6.9,2.7-6.9,7.4s.7,4.1,1.9,5.3c1.3,1.2,3.2,1.9,5.4,1.9h4.2c1,0,1.5-.5,1.5-1.4s-.5-1.4-1.5-1.4h-4.2c-2.3,0-3.9-1.3-4.4-3.2h10.6v-1.3c0-4.7-2.4-7.4-6.7-7.4h0ZM64,26.5c.4-2.4,1.7-3.5,3.9-3.5s3.5,1.2,3.8,3.5h-7.7,0Z"/>
          <path class="st2" d="M83.7,27.3l3.6-4.7c.2-.3.3-.5.3-.8,0-.7-.7-1.4-1.5-1.4s-.9.2-1.2.6l-2.9,4.1-2.8-4.1c-.3-.4-.7-.6-1.2-.6-.8,0-1.5.7-1.5,1.4s0,.6.3.8l3.6,4.7-4.2,5.4c-.2.3-.3.5-.3.8,0,.7.7,1.4,1.5,1.4s.9-.2,1.2-.6l3.4-4.8,3.4,4.8c.3.4.7.6,1.2.6.8,0,1.5-.7,1.5-1.4s0-.5-.3-.8l-4.1-5.4h0Z"/>
          <path class="st2" d="M97.1,27.3l3.6-4.7c.2-.3.3-.5.3-.8,0-.7-.7-1.4-1.5-1.4s-.9.2-1.2.6l-2.9,4.1-2.8-4.1c-.3-.4-.7-.6-1.2-.6-.8,0-1.5.7-1.5,1.4s0,.6.3.8l3.6,4.7-4.2,5.4c-.2.3-.3.5-.3.8,0,.7.7,1.4,1.5,1.4s.9-.2,1.2-.6l3.4-4.8,3.4,4.8c.3.4.7.6,1.2.6.8,0,1.5-.7,1.5-1.4s0-.5-.3-.8l-4.1-5.4h0Z"/>
          <path class="st2" d="M105.3,20.3c-1,0-1.5.5-1.5,1.4v11.8c0,.9.5,1.4,1.5,1.4s1.5-.5,1.5-1.4v-11.8c0-.9-.5-1.4-1.5-1.4h0Z"/>
          <path class="st2" d="M116.7,20.3c-4.2,0-7,2.9-7,7.3s3,7.4,7,7.4,7.2-3.2,7.2-7.4-2.9-7.3-7.2-7.3ZM116.7,32.1c-2.5,0-4.1-1.8-4.1-4.6s1.7-4.5,4.1-4.5,4.2,1.9,4.2,4.5-1.8,4.6-4.2,4.6Z"/>
          <path class="st2" d="M132.4,20.6h-5.9v12.9c0,1,.5,1.4,1.5,1.4s1.4-.5,1.4-1.4v-10.1h3.2c1.7,0,2.5.7,2.5,2.3v7.8c0,.9.5,1.4,1.4,1.4s1.5-.5,1.5-1.4v-7.8c0-3.1-2.2-5.1-5.6-5.1h0Z"/>
        </g>
      </g>
      <g>
        <g>
          <path class="st3" d="M7.7,52.3l1.1-4.1h1.2l-1.6,5.4h-1.4l-1.1-3.9-1.1,3.9h-1.3l-1.6-5.4h1.2l1.1,4.1,1.1-4.1h1.1l1.1,4.1Z"/>
          <path class="st3" d="M10.8,46.5c0-.4.4-.7.7-.7s.8.4.8.7-.4.8-.8.8c-.4,0-.7-.3-.7-.8ZM12.1,53.5h-1.2v-5.4h1.2v5.4Z"/>
          <path class="st3" d="M13.8,48.2h1.2v6c0,1.2-.7,1.8-1.8,1.8s-.7,0-.9-.2v-1.1c.3.1.5.2.8.2.5,0,.7-.2.7-.9v-5.8h0ZM13.6,46.5c0-.4.4-.7.7-.7s.7.4.7.7-.4.8-.7.8-.7-.3-.7-.8Z"/>
          <path class="st3" d="M22.9,53.5h-4.4v-1l2.8-3.4h-2.7v-1h4.1v1l-2.8,3.4h3v1h0Z"/>
          <path class="st3" d="M23.9,46.5c0-.4.4-.7.8-.7s.7.4.7.7-.4.8-.7.8c-.4,0-.8-.3-.8-.8ZM25.3,53.5h-1.2v-5.4h1.2v5.4Z"/>
          <path class="st3" d="M27,48.2h1.2v6c0,1.2-.7,1.8-1.8,1.8s-.7,0-.9-.2v-1.1c.3.1.5.2.8.2.5,0,.7-.2.7-.9v-5.8h0ZM26.8,46.5c0-.4.4-.7.7-.7s.7.4.7.7-.4.8-.7.8c-.4,0-.7-.3-.7-.8Z"/>
          <path class="st3" d="M29.8,48.5c.7-.3,1.7-.5,2.5-.5,1.4,0,2.3.5,2.3,2v3.5h-1.2v-3.4c0-.8-.5-1.1-1.2-1.1s-.9,0-1.2.2v4.3h-1.2v-5.1h0Z"/>
        </g>
        <g>
          <g>
            <path class="st3" d="M105.7,47.6c-.3,1.7-1,3.4-2,4.7h0l-2.1-4.7h-1.4l1.1,2.5c-.4,1.1-1.6,2.7-3.5,2.7s-1.8-.5-1.9-1.5c.2,0,.5.1,1.4.1s2.6-.6,2.6-2.2-.9-1.9-2.2-1.9c-1.9,0-3.2,1.2-3.2,3.3s.2,1.4.4,1.8c-.2.2-.5.3-.9.3s-.7-.1-.7-.8v-6.5h-1.3v2.1c-.4-.2-.8-.3-1.3-.3-2.2,0-3.3,1.5-3.3,3.4s1,3.2,2.8,3.2,1.6-.3,2-.8c.3.5.9.8,1.6.8s1.4-.3,1.9-.5c.5.4,1.2.5,2.1.5,2.4,0,3.6-1.7,4.1-2.6l1.1,2.5h.9c1.5-1.6,2.6-4.2,3-6.3h-1.3c0,0,0,0,0,0h0ZM90.4,52.9c-1.1,0-1.6-.9-1.6-2s.5-2.2,1.9-2.2,1,.1,1.4.3v3.2h0c-.3.4-.9.7-1.7.7ZM97.7,48.5c.7,0,1,.3,1,.9,0,.9-.7,1.1-1.6,1.1s-1.1-.1-1.2-.2c0-1.2.9-1.8,1.8-1.8h0Z"/>
            <path class="st3" d="M68.3,47.6c-.9,0-1.8.1-2.5.7v3.9c-.6.5-1.2.6-1.6.6-.9,0-1.5-.5-1.7-1.4,0-.2,0-.4,0-.6h0v-1.9h2.1v-1.1h-2.1v-1.9h-1.3v1.9h-1.5v1.1h1.5v1.9h0c0,.3,0,.5,0,.8.3,1.4,1.4,2.4,2.9,2.4h0c.6,0,1.2-.2,1.7-.5v.4h1.2v-4.7c.4-.2.8-.3,1.2-.3s.7,0,.9.2l.5-1.1c-.3,0-.9-.2-1.3-.2h0Z"/>
            <path class="st3" d="M87.1,52.1c0-1.3-.9-1.6-1.8-1.8-.7-.2-1.6-.2-1.6-.8s.6-.8,1.1-.8c.7,0,1.1.2,1.7.5l.5-1c-.5-.3-1.3-.5-2.2-.5s-2.3.6-2.3,1.9,1,1.5,2,1.8c.6.1,1.2.3,1.2.8h0s.1.8-1.4.8h-1.6c-1,0-1-.4-1-1v-2c0-1.8-1.4-2.3-2.5-2.3s-2,.3-2.5.7v4.4c0,.1-.4.2-.6.2s-.7-.2-.7-.4v-4.2l-.3-.2c-.3-.1-1.1-.5-2.4-.5s-2,.4-2.6,1.2c-.5.7-.7,1.7-.5,2.8.3,1.5,1.5,2.4,3,2.4h0c.7,0,1.3-.2,1.8-.7.4.4,1,.7,1.7.7,1.1,0,1.9-.7,1.9-.7v-4.3s.5-.3,1.4-.3,1.3.3,1.3,1.4h0v1.9c0,.8.1,1.9,2,1.9h2.1c1.4,0,2-.6,2.3-1.2,0-.3,0-.5,0-.7h0ZM74.1,52.3c-.2.2-.8.6-1.6.6s-1.5-.7-1.7-1.4c-.2-.8,0-1.5.4-2,.4-.4.9-.7,1.6-.7h0c.5,0,1.1.1,1.3.2,0,.4,0,3,0,3.3h0Z"/>
          </g>
          <g>
            <path class="st3" d="M54,43.4c.6-.4.9-1.1.5-1.8-.4-.6-1.1-.9-1.8-.5-.6.4-.9,1.1-.5,1.8s1.1.9,1.8.5Z"/>
            <path class="st3" d="M58.8,44.2c0-.2-.3-.4-.7-.3-3.1.4-4.9.7-11.3,1.4-.5,0-1,.1-1,.5,0,.6,1.4.6,2.5.9.5.1,1.1.3,1.5.5.4.2.2.4.2.5-1.2,1.8-2.8,4.3-3.3,5.2s.3,1.3,1.1.7c1.8-1.6,2.4-2.3,3.9-3.6.2-.2.4-.1.5.1,0,.2,0,.4,0,.5,0,.3,0,.7,0,1h0c0,0,0,.2,0,.4-.2,1.8-1.3,3.7-2.5,4.8,1.1-.4,2.2-1.1,3.1-2h0c.2-.2.4-.4.5-.6.7-.9,1.2-2,1.4-3.3,0-.3,0-.5.1-.9.3-2.6,1.3-3.5,3.5-4.9.3-.3.6-.6.5-.9h0Z"/>
            <path class="st0" d="M51.3,53.8c-.5.7-1.2,1.3-2.3,1.7-1,.4-2.1.5-3.3.3-.2,0-.4,0-.6-.2-3.4-1-5.5-4.3-4.9-7.8.7-3.7,4.2-6.2,8-5.5h0c.4,0,.7-.2.7-.5s-.2-.7-.5-.7c-4.4-.8-8.6,2.1-9.4,6.5-.8,4.2,1.9,8.3,6,9.3.2,0,.4,0,.5.1,1.4.3,2.8.1,4.2-.4,1.2-1.1,2.3-3,2.5-4.8,0-.1,0-.2,0-.3,0,.5-.3,1.4-.9,2.3h0Z"/>
          </g>
        </g>
      </g>
    </g>
  </g>
</svg>