<svg width="127" height="42" viewBox="0 0 127 42" fill="none" xmlns="http://www.w3.org/2000/svg">
<path d="M88.7672 10.1438C88.8988 9.49365 89.5424 8.95905 90.2005 8.9446L106.128 8.81456L105.251 13.3948L93.4183 28.0602C94.486 28.0024 96.9871 27.988 98.8154 27.9735L102.779 27.9446L101.697 33.8397L84.1014 33.9842L84.9351 29.404L96.9725 14.5362C96.0071 14.594 94.2666 14.6518 91.8826 14.6807L87.9189 14.7096L88.7672 10.1583V10.1438ZM127 8.65563L111.087 8.78566C110.414 8.78566 109.77 9.33472 109.639 9.98491L108.79 14.5362L112.754 14.5074C115.138 14.4929 116.879 14.4207 117.844 14.3629L105.807 29.2306L104.973 33.8108C105.046 33.8108 105.119 33.8108 105.192 33.7819C106.011 33.7097 109.054 33.5507 114.144 34.5621C114.553 34.6488 114.992 34.7355 115.416 34.8222C115.46 34.8222 115.489 34.8367 115.518 34.8511C117.917 35.3279 120.623 35.6025 124.557 34.9667L125.596 29.4329C120.316 30.2131 117.493 29.1583 114.027 28.4792L126.122 13.2503L127 8.67008V8.65563ZM84.8474 8.98795L79.6258 9.03129C79.0115 9.07464 78.4118 9.56589 78.2802 10.1727V10.2305L76.8322 18.0184C75.2233 27.41 71.6107 29.1005 68.3198 29.1294C66.6963 29.1294 66.2282 27.8868 66.7548 24.8237L69.68 9.11798L64.4585 9.16133C63.8442 9.20468 63.2591 9.69593 63.1129 10.2883V10.3461L60.0999 26.4275C59.2516 31.1089 60.6118 34.4321 65.0435 34.6488C65.0435 34.6488 66.1844 34.6488 66.7548 34.5766C70.1627 34.2732 72.8246 33.1173 74.8431 30.8055C74.4482 32.1926 74.2141 33.2329 74.0825 34.042L80.2986 33.9986C80.7813 30.9789 81.7612 25.5028 82.3902 22.0785L84.8327 8.98795H84.8474ZM58.1985 16.429C58.2716 25.8785 53.9715 34.6488 42.1243 34.75C38.8188 34.7789 35.9228 34.4899 33.1731 33.912L39.0821 2.05257V1.99478C39.243 1.40238 39.828 0.911123 40.4569 0.853328L45.6638 0.809982L44.2744 8.26551C44.0403 9.58034 43.6893 10.9385 43.1335 12.7157C44.7863 10.794 47.6969 8.77122 52.2017 8.69897C56.0777 8.67008 58.1692 11.1264 58.2131 16.4435M51.6606 17.7005C51.6459 15.2442 50.7976 14.2328 49.0717 14.2473C45.5615 14.2762 42.7971 17.845 40.7056 27.6846L40.3692 29.3895C41.2321 29.5773 42.0951 29.7218 43.2213 29.7218C49.0717 29.6785 51.7045 22.9309 51.6606 17.7005ZM30.3941 36.0937L29.3703 41.6276C19.9803 43.1591 17.5523 39.4025 9.78584 40.4717L10.5903 35.8914V35.8625C10.678 35.5302 10.8974 35.2268 11.2046 35.0245C3.61359 34.5332 0.0594294 30.0108 0.000924744 22.8154C-0.101458 10.5051 8.30859 0.0875474 19.8048 0.000855212C28.1417 -0.0713883 32.6027 4.43661 32.6758 12.3111C32.7782 24.0435 25.5382 32.9872 16.119 34.75C21.0772 35.1834 23.8416 37.0618 30.3941 36.0793M13.6764 29.1294C20.6385 29.0716 25.7722 21.7606 25.6991 13.1203C25.6699 8.74232 23.5052 5.85258 18.8833 5.88148C11.5556 5.93927 6.88985 13.5537 6.94836 21.645C6.99224 26.4275 9.34705 29.1583 13.6764 29.1294Z" fill="#FF9622"/>
</svg>
